<svg xmlns="http://www.w3.org/2000/svg" xmlns:xlink="http://www.w3.org/1999/xlink" version="1.1" x="0px" y="0px" viewBox="0 0 70.832 100.001" enable-background="new 0 0 70.832 100.001" xml:space="preserve"><circle fill="#000000" cx="35.415" cy="8.333" r="8.333"></circle><path fill="#000000" d="M54.166,33.451v-6.25c0-1.151-0.933-2.083-2.084-2.083c-0.468,0-2.209,0.016-4.476,0.226  c-2.751-2.565-6.645-4.393-12.19-4.393c-5.542,0-9.436,1.827-12.188,4.393c-2.268-0.209-4.008-0.226-4.478-0.226  c-1.152,0-2.083,0.932-2.083,2.083v6.25c-2.301,0-4.167,1.866-4.167,4.167c0,2.301,1.865,4.167,4.167,4.167v6.25  c0,1.149,0.932,2.084,2.083,2.084c4.502,0.004,12.609,0.972,15.192,3.556c0.407,0.407,0.94,0.61,1.474,0.61s1.065-0.203,1.473-0.61  c2.584-2.584,10.693-3.552,15.193-3.556c1.151,0,2.084-0.935,2.084-2.084v-6.25c2.303,0,4.166-1.866,4.166-4.167  C58.332,35.317,56.468,33.451,54.166,33.451z M49.999,46.008c-3.532,0.171-10.474,0.853-14.583,3.54  c-4.11-2.688-11.047-3.369-14.583-3.54V29.346c4.585,0.246,10.887,1.273,13.109,3.495c0.814,0.814,2.133,0.814,2.946,0  c2.222-2.222,8.524-3.249,13.11-3.495V46.008z"></path><path fill="#000000" d="M64.582,72.914c0,3.455-2.795,6.254-6.25,6.254c-3.45,0-6.25-2.799-6.25-6.254c0-3.45,2.8-6.25,6.25-6.25  C61.787,66.664,64.582,69.464,64.582,72.914z"></path><path fill="#000000" d="M18.75,70.831c0,3.454-2.798,6.254-6.25,6.254c-3.453,0-6.25-2.8-6.25-6.254c0-3.451,2.797-6.25,6.25-6.25  C15.952,64.581,18.75,67.38,18.75,70.831z"></path><g><path fill="#000000" d="M41.666,77.081c0,3.454-2.796,6.254-6.25,6.254c-3.451,0-6.25-2.8-6.25-6.254c0-3.451,2.799-6.25,6.25-6.25   C38.87,70.831,41.666,73.63,41.666,77.081z"></path></g><path fill="#000000" d="M12.5,81.251c-6.905,0-12.5,8.391-12.5,18.75h18.75c0-4.105,1.499-7.865,3.971-10.774  C20.461,84.409,16.729,81.251,12.5,81.251z"></path><path fill="#000000" d="M58.332,83.335c-4.085,0-7.702,2.222-9.981,6.173c2.328,2.868,3.731,6.518,3.731,10.493h18.75  C70.832,89.642,65.237,83.335,58.332,83.335z"></path><path fill="#000000" d="M46.5,94.228c-2.088-3.996-6.263-6.727-11.084-6.727c-4.789,0-8.944,2.694-11.043,6.649  c-0.927,1.745-1.456,3.735-1.456,5.851h2.082h20.833h2.084C47.916,97.918,47.398,95.957,46.5,94.228z"></path></svg>